<svg xmlns="http://www.w3.org/2000/svg" width="100" height="18" viewBox="0 0 100 18" version="1.1"><g fill="#222222"><path d="M7.5 17.7L0 17.7 0 0.3 6.9 0.3C10.6 0.3 11.9 1.7 11.9 4.1L11.9 5.9C11.9 7.1 11.3 8 10 8.6 11.4 8.9 12.5 10.2 12.5 11.8L12.5 13.5C12.5 16 11 17.7 7.5 17.7L7.5 17.7ZM8 4.6C8 3.9 7.5 3.4 6.4 3.4L3.9 3.4 3.9 7.4 6.4 7.4C7.4 7.4 8 6.9 8 6.2 8 6.2 8 4.6 8 4.6L8 4.6ZM8.6 11.9C8.6 10.9 8 10.4 6.9 10.4L3.9 10.4 3.9 14.5 6.4 14.5C7.6 14.5 8.6 14.2 8.6 13L8.6 11.9 8.6 11.9ZM16.6 17.7L16.6 0.3 20.6 0.3 20.6 14.2 27.5 14.2 27.5 17.7 16.6 17.7ZM46.7 17.7L42.6 17.7 41.7 14.3 35.8 14.3 34.9 17.7 30.8 17.7 36.1 0.3 41.4 0.3 46.7 17.7 46.7 17.7ZM36.7 11L40.7 11 38.7 3.7 36.7 11 36.7 11ZM54 6.2L54 17.7 50.3 17.7 50.3 0.3 55.1 0.3 60.9 12.2 60.9 0.3 64.6 0.3 64.6 17.7 59.8 17.7 54 6.2ZM69.6 0.3L73.6 0.3 73.6 17.7 69.6 17.7 69.6 0.3 69.6 0.3ZM74.1 8.8L78.8 0.3 83.2 0.3 78.3 8.8 83.6 17.7 79.2 17.7 74.1 8.8 74.1 8.8ZM99.9 12.6C99.9 15.2 98.1 17.9 93.2 17.9 88.2 17.9 86.4 15.2 86.4 12.6L86.4 5.3C86.4 2.7 88.2 0 93.2 0 98.1 0 99.9 2.7 99.9 5.3L99.9 12.6 99.9 12.6ZM96 5.7C96 4.3 95.1 3.5 93.2 3.5 91.2 3.5 90.3 4.3 90.3 5.7L90.3 12.2C90.3 13.6 91.2 14.4 93.2 14.4 95.1 14.4 96 13.6 96 12.2L96 5.7 96 5.7Z"/></g></svg>