<svg width="95" height="19" viewBox="0 0 95 19" fill="none" xmlns="http://www.w3.org/2000/svg">
<path d="M4.233 5.684C4.879 5.684 5.48533 5.78033 6.052 5.973C6.61867 6.16567 7.11733 6.43767 7.548 6.789L6.562 8.302C5.82533 7.83733 5.083 7.605 4.335 7.605C3.98367 7.605 3.71167 7.66733 3.519 7.792C3.33767 7.90533 3.247 8.06967 3.247 8.285C3.247 8.455 3.28667 8.59667 3.366 8.71C3.45667 8.812 3.63233 8.91967 3.893 9.033C4.15367 9.14633 4.556 9.28233 5.1 9.441C6.04067 9.713 6.73767 10.07 7.191 10.512C7.65567 10.9427 7.888 11.5433 7.888 12.314C7.888 12.926 7.71233 13.4587 7.361 13.912C7.00967 14.354 6.528 14.694 5.916 14.932C5.304 15.17 4.624 15.289 3.876 15.289C3.11667 15.289 2.40833 15.17 1.751 14.932C1.105 14.694 0.555333 14.3653 0.102 13.946L1.411 12.484C2.17033 13.0733 2.96933 13.368 3.808 13.368C4.216 13.368 4.53333 13.2943 4.76 13.147C4.998 12.9997 5.117 12.79 5.117 12.518C5.117 12.3027 5.07167 12.1327 4.981 12.008C4.89033 11.8833 4.71467 11.77 4.454 11.668C4.19333 11.5547 3.77967 11.4187 3.213 11.26C2.31767 10.9993 1.649 10.6367 1.207 10.172C0.765 9.70733 0.544 9.12933 0.544 8.438C0.544 7.91667 0.691333 7.452 0.986 7.044C1.292 6.62467 1.72267 6.296 2.278 6.058C2.84467 5.80867 3.49633 5.684 4.233 5.684ZM17.2278 15H14.8988L14.7798 13.861C14.1224 14.813 13.2101 15.289 12.0428 15.289C11.2154 15.289 10.5864 15.0397 10.1558 14.541C9.73644 14.0423 9.52677 13.3453 9.52677 12.45V5.973H12.2128V12.11C12.2128 12.552 12.2808 12.8637 12.4168 13.045C12.5641 13.215 12.7851 13.3 13.0798 13.3C13.6464 13.3 14.1338 12.9487 14.5418 12.246V5.973H17.2278V15ZM24.4403 5.684C25.5736 5.684 26.418 6.10333 26.9733 6.942C27.5286 7.78067 27.8063 8.95367 27.8063 10.461C27.8063 11.3903 27.659 12.2233 27.3643 12.96C27.081 13.6853 26.6673 14.2577 26.1233 14.677C25.5793 15.085 24.9446 15.289 24.2193 15.289C23.3126 15.289 22.5816 14.9773 22.0263 14.354V18.485L19.3403 18.774V5.973H21.7033L21.8393 6.976C22.1906 6.534 22.593 6.211 23.0463 6.007C23.4996 5.79167 23.9643 5.684 24.4403 5.684ZM23.4033 13.317C24.48 13.317 25.0183 12.3763 25.0183 10.495C25.0183 9.42967 24.8993 8.693 24.6613 8.285C24.4233 7.86567 24.0663 7.656 23.5903 7.656C23.2843 7.656 22.9953 7.74667 22.7233 7.928C22.4626 8.10933 22.2303 8.37 22.0263 8.71V12.518C22.389 13.0507 22.848 13.317 23.4033 13.317ZM37.3548 10.308C37.3548 10.682 37.3378 11.005 37.3038 11.277H31.7108C31.8015 12.0363 32.0168 12.569 32.3568 12.875C32.6968 13.181 33.1672 13.334 33.7678 13.334C34.1305 13.334 34.4818 13.2717 34.8218 13.147C35.1618 13.011 35.5302 12.807 35.9268 12.535L37.0318 14.031C35.9778 14.8697 34.8048 15.289 33.5128 15.289C32.0508 15.289 30.9288 14.8583 30.1468 13.997C29.3648 13.1357 28.9738 11.9797 28.9738 10.529C28.9738 9.611 29.1382 8.78933 29.4668 8.064C29.7955 7.32733 30.2772 6.74933 30.9118 6.33C31.5465 5.89933 32.3058 5.684 33.1898 5.684C34.4932 5.684 35.5132 6.092 36.2498 6.908C36.9865 7.724 37.3548 8.85733 37.3548 10.308ZM34.7198 9.543C34.6972 8.16033 34.2098 7.469 33.2578 7.469C32.7932 7.469 32.4305 7.639 32.1698 7.979C31.9205 8.319 31.7675 8.88 31.7108 9.662H34.7198V9.543ZM43.7597 5.718C44.0884 5.718 44.3887 5.75767 44.6607 5.837L44.2357 8.438C43.8957 8.35867 43.6237 8.319 43.4197 8.319C42.8871 8.319 42.4791 8.506 42.1957 8.88C41.9237 9.24267 41.7084 9.79233 41.5497 10.529V15H38.8637V5.973H41.2097L41.4307 7.724C41.6347 7.10067 41.9407 6.61333 42.3487 6.262C42.7681 5.89933 43.2384 5.718 43.7597 5.718ZM50.991 1.315C50.4016 2.18767 49.9313 2.96967 49.58 3.661C49.24 4.341 48.968 5.11733 48.764 5.99C48.5713 6.86267 48.475 7.88267 48.475 9.05C48.475 10.206 48.5713 11.2203 48.764 12.093C48.968 12.9657 49.24 13.7533 49.58 14.456C49.9313 15.1473 50.4016 15.9237 50.991 16.785L50.005 17.465C49.257 16.3997 48.679 15.527 48.271 14.847C47.8743 14.1557 47.5343 13.334 47.251 12.382C46.979 11.4187 46.843 10.308 46.843 9.05C46.843 7.792 46.979 6.687 47.251 5.735C47.5343 4.77167 47.8743 3.95 48.271 3.27C48.679 2.57867 49.257 1.70033 50.005 0.635L50.991 1.315ZM91.4864 0.635C92.2344 1.70033 92.8068 2.57867 93.2034 3.27C93.6114 3.95 93.9514 4.77167 94.2234 5.735C94.5068 6.687 94.6484 7.792 94.6484 9.05C94.6484 10.308 94.5068 11.4187 94.2234 12.382C93.9514 13.334 93.6114 14.1557 93.2034 14.847C92.8068 15.527 92.2344 16.3997 91.4864 17.465L90.5004 16.785C91.0898 15.9237 91.5544 15.1473 91.8944 14.456C92.2458 13.7533 92.5178 12.9657 92.7104 12.093C92.9144 11.2203 93.0164 10.206 93.0164 9.05C93.0164 7.88267 92.9144 6.86267 92.7104 5.99C92.5178 5.11733 92.2458 4.341 91.8944 3.661C91.5544 2.96967 91.0898 2.18767 90.5004 1.315L91.4864 0.635Z" fill="#0D0131"/>
<path d="M56.6387 5.684C57.262 5.684 57.823 5.77467 58.3217 5.956C58.8204 6.13733 59.2907 6.415 59.7327 6.789L58.5767 8.387C58.01 7.95633 57.4377 7.741 56.8597 7.741C56.259 7.741 55.8057 7.962 55.4997 8.404C55.1937 8.846 55.0407 9.56 55.0407 10.546C55.0407 11.498 55.1937 12.1723 55.4997 12.569C55.8057 12.9657 56.2477 13.164 56.8257 13.164C57.1317 13.164 57.4094 13.1187 57.6587 13.028C57.908 12.926 58.2084 12.7673 58.5597 12.552L59.7327 14.218C58.8374 14.932 57.823 15.289 56.6897 15.289C55.7717 15.289 54.9784 15.0963 54.3097 14.711C53.641 14.3143 53.1254 13.7647 52.7627 13.062C52.4 12.348 52.2187 11.515 52.2187 10.563C52.2187 9.611 52.4 8.76667 52.7627 8.03C53.1254 7.29333 53.641 6.721 54.3097 6.313C54.9784 5.89367 55.7547 5.684 56.6387 5.684ZM64.9435 5.684C66.3261 5.684 67.4085 6.109 68.1905 6.959C68.9725 7.79767 69.3635 8.97633 69.3635 10.495C69.3635 11.4583 69.1821 12.3027 68.8195 13.028C68.4681 13.742 67.9581 14.2973 67.2895 14.694C66.6321 15.0907 65.8501 15.289 64.9435 15.289C63.5721 15.289 62.4898 14.8697 61.6965 14.031C60.9145 13.181 60.5235 11.9967 60.5235 10.478C60.5235 9.51467 60.6991 8.676 61.0505 7.962C61.4131 7.23667 61.9231 6.67567 62.5805 6.279C63.2491 5.88233 64.0368 5.684 64.9435 5.684ZM64.9435 7.656C64.3995 7.656 63.9915 7.88833 63.7195 8.353C63.4475 8.80633 63.3115 9.51467 63.3115 10.478C63.3115 11.464 63.4418 12.1837 63.7025 12.637C63.9745 13.0903 64.3881 13.317 64.9435 13.317C65.4875 13.317 65.8955 13.0903 66.1675 12.637C66.4395 12.1723 66.5755 11.4583 66.5755 10.495C66.5755 9.509 66.4395 8.78933 66.1675 8.336C65.9068 7.88267 65.4988 7.656 64.9435 7.656ZM79.0532 2.386V15H76.6732L76.5372 13.946C75.9025 14.8413 75.0469 15.289 73.9702 15.289C72.8482 15.289 71.9925 14.8583 71.4032 13.997C70.8252 13.1357 70.5362 11.957 70.5362 10.461C70.5362 9.543 70.6892 8.72133 70.9952 7.996C71.3012 7.27067 71.7319 6.704 72.2872 6.296C72.8539 5.888 73.4999 5.684 74.2252 5.684C75.0865 5.684 75.8005 5.96733 76.3672 6.534V2.097L79.0532 2.386ZM74.8032 13.317C75.4265 13.317 75.9479 12.977 76.3672 12.297V8.404C76.1519 8.14333 75.9309 7.95067 75.7042 7.826C75.4889 7.70133 75.2395 7.639 74.9562 7.639C74.4575 7.639 74.0609 7.87133 73.7662 8.336C73.4715 8.80067 73.3242 9.51467 73.3242 10.478C73.3242 11.532 73.4489 12.2687 73.6982 12.688C73.9589 13.1073 74.3272 13.317 74.8032 13.317ZM89.0255 10.308C89.0255 10.682 89.0085 11.005 88.9745 11.277H83.3815C83.4722 12.0363 83.6875 12.569 84.0275 12.875C84.3675 13.181 84.8379 13.334 85.4385 13.334C85.8012 13.334 86.1525 13.2717 86.4925 13.147C86.8325 13.011 87.2009 12.807 87.5975 12.535L88.7025 14.031C87.6485 14.8697 86.4755 15.289 85.1835 15.289C83.7215 15.289 82.5995 14.8583 81.8175 13.997C81.0355 13.1357 80.6445 11.9797 80.6445 10.529C80.6445 9.611 80.8089 8.78933 81.1375 8.064C81.4662 7.32733 81.9479 6.74933 82.5825 6.33C83.2172 5.89933 83.9765 5.684 84.8605 5.684C86.1639 5.684 87.1839 6.092 87.9205 6.908C88.6572 7.724 89.0255 8.85733 89.0255 10.308ZM86.3905 9.543C86.3679 8.16033 85.8805 7.469 84.9285 7.469C84.4639 7.469 84.1012 7.639 83.8405 7.979C83.5912 8.319 83.4382 8.88 83.3815 9.662H86.3905V9.543Z" fill="#3DD7AC"/>
</svg>
